<svg xmlns="http://www.w3.org/2000/svg" viewBox="0 0 521.3 469.98"><defs><style>.cls-1{fill:#ffc20e;fill-rule:evenodd;}</style></defs><title>Asset 1</title><g id="Layer_2" data-name="Layer 2"><g id="Layer_1-2" data-name="Layer 1"><path class="cls-1" d="M43.63,31.61l165.1,46S148.76,138.31,222,192c1.94-.53,20.51-39.17-9.7-41.41l-1-5.23,58.16-28.13s40.49,21,20.25,63.87c0,0,71.4-42-13.84-98.14L446.38,0S694.27,334.25,288.23,470c0,0,73.07-184.78-11.05-183.65,0,0-72-7,3.2,133.17,0,0-300.6,21.31-279.3-254.61,0,0,10.1-81.89,35.9-122.27l6.17-9.88.48-1.13Z"/></g></g></svg>